# xmcd
#
# Track frame offsets:
#  182
#  19907
#  33955
#  46470
#  63980
#  78535
#  93020
#  102265
#  114655
#  128870
#  140437
#
# Disc length: 2054 seconds
#
# Revision: 0
# Processed by: cddbd v1.5.1PL2 Copyright (c) Steve Scherf et al.
# Submitted via: Collectorz.com_Music_Collector 6.9
#
DISCID=8d08040b
DTITLE=Star Sisters - Hooray for Hollywood
DYEAR=1900
DGENRE=
TTITLE0=A tribute to Marilyn Monroe: My heart belongs to daddy - I wanna be loved by you - Diamonds are the girls best friend
TTITLE1=Alexanders ragtime band
TTITLE2=Mister Sandman
TTITLE3=Cry me a river
TTITLE4=This is only the beginning
TTITLE5=Hooray for Hollywood - Hallelujah - There's no business like showbusiness
TTITLE6=Sentimental gentleman
TTITLE7=Lullaby of Broadway
TTITLE8=Hawaiian summer
TTITLE9=Drivin' with my baby
TTITLE10=Showbusiness
EXTD=
EXTT0=
EXTT1=
EXTT2=
EXTT3=
EXTT4=
EXTT5=
EXTT6=
EXTT7=
EXTT8=
EXTT9=
EXTT10=
PLAYORDER=
